# xmcd CD database file
#
# Track frame offsets:
#	150
#	19864
#	43896
#	63749
#	81542
#	102407
#	120368
#	140570
#	163468
#	187465
#	206395
#	230520
#	249783
#	270230
#	288510
#
# Disc length: 4163 seconds
#
# Revision: 2
# Processed by: cddbd v1.4PL0 Copyright (c) Steve Scherf et al.
# Submitted via: CDex 1.51
#
DISCID=e410410f
DTITLE=Jeff Lorber - The Very Best of Jeff Lorber
DYEAR=2002
DGENRE=Jazz
TTITLE0=Grasshopper
TTITLE1=Iguassu Falls
TTITLE2=Reverend Green
TTITLE3=Bring it On
TTITLE4=Katherine
TTITLE5=Chopsticks
TTITLE6=Yellowstone
TTITLE7=Punta del Este
TTITLE8=Lost With You
TTITLE9=PCH (Pacific Coast Highway)
TTITLE10=Rain Song
TTITLE11=Say Love
TTITLE12=Point Venus
TTITLE13=Stage of Grace
TTITLE14=Do What it Takes
EXTD=YEAR: 2002
EXTT0=
EXTT1=
EXTT2=
EXTT3=
EXTT4=
EXTT5=
EXTT6=
EXTT7=
EXTT8=
EXTT9=
EXTT10=
EXTT11=
EXTT12=
EXTT13=
EXTT14=
PLAYORDER=
